<svg xmlns="http://www.w3.org/2000/svg" viewBox="0 0 328.98 328.98"><defs><style>.cls-1{fill:#eeefef;}.cls-2{fill:#231f20;}</style></defs><g id="Layer_2" data-name="Layer 2"><g id="Layer_1-2" data-name="Layer 1"><circle class="cls-1" cx="164.49" cy="164.49" r="164.49"/><path class="cls-2" d="M188.35,184.42c6.35-14.84,25-23.16,40.42-17.87,7.89,2.6,14.42,8.3,19,15.23,8.67,13.42,2.9,28.72-14.51,27.21-11.08-.81-27.7-7.14-29.55-19.61-1.27-11.48,9.35-15.27,18.3-10.33,3.74,2,5.74,5.92,7.46,9.47,1.9,4.17,4.59,5.54,9,4a12.75,12.75,0,0,1-2.79.95c-8.92,1.53-7.14-12.95-19.94-13.58-5.69-.41-9.2,3.27-8.18,8.91.54,3.18,2.8,6,5.6,8.12,6.76,5.23,22.44,10.18,30,5.1,5.82-4.19,3.93-12.37.61-17.8a34.15,34.15,0,0,0-16.25-14c-14.22-5.5-31.34,1.28-39.12,14.2Z"/><path class="cls-2" d="M136.5,151.08c-4-3.05-9.19-3.54-14-3.11-15.5,1.68-30,12.49-35.63,26.93-6,15.32-4,40.38,18.35,35.69,9.12-1.91,16.87-8.44,21.61-16.35,3.76-5.92,6.68-12.58,6.31-19.61-.17-4.21-2-8.73-6.26-10-7.4-2.83-12.16,3.9-14.23,10.21a35.74,35.74,0,0,0-1.74,7c-.28,5.59.19,10.36-6.17,12.94a26,26,0,0,1-7.36,1.46c3.32-.63,6.68-1.45,9.28-3.61,3.25-2.81,2.26-7.1,2.32-10.95.74-7.52,3-16.76,10.55-20.27a13,13,0,0,1,10.44.56c4.65,2.18,7,7.57,7.36,12.36,1,12.09-7.39,27-16.74,34.3-10.17,8.36-28.31,11.72-36.79-.74-3.51-5.16-4.36-11.36-4.29-17.41a43.75,43.75,0,0,1,9.69-27,46.5,46.5,0,0,1,25.68-15.88c7.17-1.57,15.9-1.67,21.62,3.56Z"/><path class="cls-2" d="M118.64,51.58c2.29-6.7,8.49-11.3,14.6-14.38,20.35-9.13,44-2.27,62.63,7.85a99.62,99.62,0,0,1,14.57,11.06c10.35,9.41,18.52,21.79,21.2,35.72a63.44,63.44,0,0,1,.5,21.2A30.7,30.7,0,0,1,219,132.44c-13.35,8.56-30,8-44.73,4.37a106.89,106.89,0,0,1-21-8.23c-25.56-12.4-60.71-38.06-40.65-69.66l.54-.87a78,78,0,0,1,17.26-.7c16.05,1,32.5,6.72,43.55,18.8,5.61,5.83,9.17,13.16,12.35,20.46,3.41,6.92,6.94,14.27,13,19.28,4.12,3.56,10.12,2.92,14.5.12-8.35,5.64-15,2.12-20.61-5.15-4.93-6.23-8.42-13.51-11.94-20.54C170.09,68.54,145.9,60,122.55,61.58a64.69,64.69,0,0,0-7.53.84l1.54-1.05c-18,28.28,16.38,51.81,38.94,62.76,12.66,6.49,26.81,11,41.13,10.08,7-.42,14-2.13,19.68-5.87,5.69-3.43,9.93-10.35,11.08-16.07A58.45,58.45,0,0,0,227,92.74C223.64,74.68,210.76,60,195.87,49.86a91.4,91.4,0,0,0-22.63-10.29c-12.56-3.81-26.63-5.18-39-.13-6.44,2.43-10.93,7.2-15.61,12.14Z"/><path class="cls-2" d="M120.86,278.58c44.24-25.94,84.81-70.19,41-117.49-12.6-13.85-28.82-24-44.77-33.72-19.37-13.19-32.26-36-24.86-59.51,2.09-6.8,7-18.14,15.37-18.15a6.77,6.77,0,0,1,4.46,2.13c-11.5-5.26-17,18.09-17.33,26-1.75,22.19,14.54,40.45,33.16,50.18,19,11.67,37.71,25.67,49.26,45.26,26.77,45.46-15.7,88.74-56.33,105.26Z"/><path class="cls-2" d="M115.15,60.06c25-7.67,59.85-.79,71.43,25.19,2.06,5,4,10.07,5.7,15.15a48.39,48.39,0,0,0,3.24,7.17c4.54,8.93,8.16,12.47,18.31,8.44a19.74,19.74,0,0,1-7.71,2.59c-6.05.46-9.77-5.49-12.47-10-2.9-4.54-4.52-9.92-6.53-14.88-1-2.48-2-4.94-3.11-7.39a36.32,36.32,0,0,0-9.09-12.41c-16-14.2-39.09-17.49-59.77-13.88Z"/><path class="cls-2" d="M187.08,220.2c1.53,12.12,3.32,24.32,7.26,35.81,3,8.95,7.48,15.77,15.6,20.52a62.51,62.51,0,0,0,8.16,4.17,29.8,29.8,0,0,1-9.2-2.07c-9.66-3.45-15.29-12-18.31-21.33a89.16,89.16,0,0,1-3.51-37.1Z"/></g></g></svg>