<?xml version="1.0" standalone="no"?>
<!DOCTYPE svg PUBLIC "-//W3C//DTD SVG 20010904//EN"
 "http://www.w3.org/TR/2001/REC-SVG-20010904/DTD/svg10.dtd">
<svg version="1.0" xmlns="http://www.w3.org/2000/svg"
 width="100.000000pt" height="100.000000pt" viewBox="0 0 100.000000 100.000000"
 preserveAspectRatio="xMidYMid meet">

<g transform="translate(0.000000,100.000000) scale(0.100000,-0.100000)"
fill="#000000" stroke="none">
<path d="M337 908 c-48 -13 -117 -76 -117 -107 0 -25 53 -81 76 -81 26 0 14
-16 -22 -29 -48 -17 -114 -84 -114 -115 0 -34 44 -83 88 -97 55 -17 57 -24 10
-38 -67 -20 -134 -58 -173 -96 -63 -63 -59 -117 13 -172 161 -123 643 -123
804 0 72 55 76 109 13 172 -39 38 -106 76 -173 96 -47 14 -45 21 10 38 41 13
88 62 88 90 0 57 -118 142 -217 157 l-43 6 20 25 c29 37 25 62 -19 103 -58 55
-150 73 -244 48z m186 -52 c76 -37 68 -83 -18 -105 -121 -30 -266 11 -236 67
9 17 37 34 91 56 28 11 125 0 163 -18z m150 -186 c66 -25 127 -73 127 -100 0
-50 -124 -85 -300 -85 -175 0 -300 35 -300 84 0 39 98 101 193 121 70 15 215
5 280 -20z m-25 -245 c136 -27 272 -109 272 -164 0 -9 -13 -30 -28 -44 -107
-103 -491 -128 -704 -47 -57 21 -108 65 -108 91 0 53 135 136 265 163 93 19
209 19 303 1z"/>
<path d="M350 847 c-14 -7 -26 -21 -28 -31 -3 -16 0 -18 19 -11 13 4 36 9 52
12 18 4 27 11 27 24 0 23 -32 25 -70 6z"/>
<path d="M366 640 c-53 -21 -86 -46 -86 -67 0 -19 12 -16 65 12 26 13 62 27
81 31 24 4 34 12 34 25 0 25 -29 24 -94 -1z"/>
<path d="M362 365 c-111 -25 -203 -77 -178 -102 3 -3 36 8 73 25 61 28 140 47
228 54 19 2 30 9 30 18 0 21 -72 23 -153 5z"/>
</g>
</svg>
