<?xml version="1.0" standalone="no"?>
<!DOCTYPE svg PUBLIC "-//W3C//DTD SVG 20010904//EN"
 "http://www.w3.org/TR/2001/REC-SVG-20010904/DTD/svg10.dtd">
<svg version="1.0" xmlns="http://www.w3.org/2000/svg"
 width="90.000000pt" height="90.000000pt" viewBox="0 0 90.000000 90.000000"
 preserveAspectRatio="xMidYMid meet">

<g transform="translate(0.000000,90.000000) scale(0.100000,-0.100000)"
fill="#000000" stroke="none">
<path d="M196 802 c5 -4 34 -27 65 -50 109 -82 112 -64 -40 -216 -93 -94 -132
-139 -129 -152 8 -46 40 -26 174 107 l133 133 25 -23 c14 -13 44 -50 68 -82
24 -33 44 -55 46 -49 6 16 -28 122 -53 168 -19 35 -22 47 -13 61 22 36 -19 70
-49 40 -7 -7 -20 -4 -44 11 -53 32 -215 78 -183 52z"/>
<path d="M592 457 l-52 -53 0 -142 0 -143 28 3 27 3 3 125 c3 120 4 126 30
153 l27 28 5 -153 5 -153 58 -3 57 -3 0 143 0 144 -53 52 c-29 29 -59 52 -68
52 -8 0 -38 -24 -67 -53z"/>
<path d="M277 353 c-4 -3 -7 -41 -7 -83 0 -75 1 -77 38 -113 36 -35 41 -37
105 -37 89 0 88 13 -5 107 -72 73 -72 73 -42 73 24 0 41 -10 73 -45 l41 -45 0
53 c0 79 -23 97 -121 97 -42 0 -79 -3 -82 -7z"/>
</g>
</svg>
