<svg width="1920" height="1006" viewBox="0 0 1920 1006" fill="none" xmlns="http://www.w3.org/2000/svg">
<path d="M750.693 616.051C322.632 600.143 0 289 0 289C0 289 -72 938 0 981C71.9118 1023.95 313.906 1000.56 515.509 981.072L516.25 981C718.001 961.5 929.999 949.5 1032.5 981C1135 1012.5 1295.5 928 1548.75 981C1802 1034 2065 981 2065 981C2065 981 1552.91 818.177 1365.83 702.141C1178.75 586.106 1178.75 631.959 750.693 616.051Z" fill="#E0D8EC" stroke="white"/>
<path d="M1452.5 343C1407.5 205.5 1208.5 133 1095 133C981.5 133 643 -4.5 643 -4.5H1919.5V744.994C1923.3 762.582 1919.5 773.5 1919.5 773.5V744.994C1913.75 718.368 1890.59 676.456 1810.5 634C1677.5 563.5 1497.5 480.5 1452.5 343Z" fill="#E0D8EC" stroke="white"/>
</svg>
