<?xml version="1.0" standalone="no"?>
<!DOCTYPE svg PUBLIC "-//W3C//DTD SVG 20010904//EN"
 "http://www.w3.org/TR/2001/REC-SVG-20010904/DTD/svg10.dtd">
<svg version="1.0" xmlns="http://www.w3.org/2000/svg"
 width="256.000000pt" height="256.000000pt" viewBox="0 0 256.000000 256.000000"
 preserveAspectRatio="xMidYMid meet">

<g transform="translate(0.000000,256.000000) scale(0.100000,-0.100000)"
fill="#000000" stroke="none">
<path d="M2015 2441 l-60 -6 3 -35 c14 -139 142 -308 287 -379 68 -34 161 -59
172 -47 5 4 8 87 8 184 0 250 -9 265 -175 283 -90 9 -138 9 -235 0z"/>
<path d="M1740 2384 c-99 -34 -230 -102 -311 -163 -98 -75 -268 -256 -338
-362 -113 -170 -188 -353 -210 -509 l-10 -75 192 -193 192 -194 62 6 c237 23
524 177 749 400 170 169 259 313 317 513 l15 51 -51 12 c-190 45 -351 170
-436 340 -22 45 -46 108 -53 141 -8 42 -17 59 -28 59 -8 0 -49 -12 -90 -26z
m-15 -485 c55 -14 122 -70 146 -123 43 -94 7 -221 -78 -280 -55 -38 -142 -47
-208 -22 -56 22 -120 91 -135 147 -27 98 20 212 105 256 64 34 103 39 170 22z"/>
<path d="M635 1899 c-147 -19 -257 -78 -385 -208 -97 -98 -180 -220 -180 -265
0 -12 9 -31 19 -40 19 -17 24 -17 118 0 145 27 359 26 435 -3 32 -12 71 -31
88 -43 17 -12 32 -21 34 -19 2 2 11 44 20 93 22 113 66 238 122 347 24 47 44
88 44 91 0 9 -89 37 -140 43 -89 11 -116 12 -175 4z"/>
<path d="M619 984 c-171 -52 -281 -242 -305 -524 -6 -71 -5 -78 18 -104 23
-27 28 -29 101 -27 161 4 360 77 452 167 60 58 87 115 93 195 15 206 -165 353
-359 293z"/>
<path d="M1767 934 c-114 -66 -346 -144 -429 -144 -33 0 -35 -9 -8 -52 62
-100 76 -272 43 -502 l-17 -118 23 -19 c13 -10 29 -19 35 -19 32 0 188 112
266 190 150 150 206 278 204 465 -1 110 -26 225 -49 231 -6 1 -36 -13 -68 -32z"/>
</g>
</svg>
