<?xml version="1.0" standalone="no"?>
<!DOCTYPE svg PUBLIC "-//W3C//DTD SVG 20010904//EN"
 "http://www.w3.org/TR/2001/REC-SVG-20010904/DTD/svg10.dtd">
<svg version="1.0" xmlns="http://www.w3.org/2000/svg"
 width="64.000000pt" height="64.000000pt" viewBox="0 0 64.000000 64.000000"
 preserveAspectRatio="xMidYMid meet">

<g transform="translate(0.000000,64.000000) scale(0.100000,-0.100000)"
fill="#000000" stroke="none">
<path d="M118 419 c-12 -6 -18 -22 -18 -44 0 -38 8 -43 90 -47 l45 -3 7 -54
c3 -29 8 -94 10 -145 l3 -91 -54 -3 -53 -3 7 135 c4 87 4 136 -3 136 -13 0
-22 -50 -22 -120 0 -101 -10 -150 -31 -150 -11 0 -19 -4 -19 -10 0 -6 98 -10
275 -10 164 0 275 4 275 9 0 6 -15 11 -32 13 l-33 3 -7 110 c-4 61 -9 127 -11
147 -4 32 -2 37 19 42 20 5 24 13 24 41 0 24 -6 37 -19 45 -26 13 -430 13
-453 -1z m336 -16 c80 -4 109 -10 113 -21 3 -8 0 -18 -8 -23 -18 -11 -410 -11
-428 0 -8 5 -11 16 -8 25 5 11 24 16 79 19 40 1 89 4 109 5 20 1 84 -1 143 -5z
m68 -132 c3 -29 8 -94 10 -145 l3 -91 -54 -3 -54 -3 7 133 c9 150 15 171 54
166 25 -3 28 -8 34 -57z m-106 -8 c-3 -32 -8 -97 -12 -145 l-6 -88 -54 0 c-35
0 -56 4 -58 12 -2 7 -8 73 -13 146 l-8 132 78 0 79 0 -6 -57z"/>
<path d="M10 20 c0 -5 5 -10 10 -10 6 0 10 5 10 10 0 6 -4 10 -10 10 -5 0 -10
-4 -10 -10z"/>
</g>
</svg>
