<?xml version="1.0" encoding="utf-8"?>
<!-- Generator: Adobe Illustrator 26.0.0, SVG Export Plug-In . SVG Version: 6.00 Build 0)  -->
<svg version="1.1" id="Layer_1" xmlns="http://www.w3.org/2000/svg" xmlns:xlink="http://www.w3.org/1999/xlink" x="0px" y="0px"
	 viewBox="0 0 425 320" style="enable-background:new 0 0 425 320;" xml:space="preserve">
<style type="text/css">
	.st0{fill:#3FA9F5;}
	.st1{fill:#1B1464;}
</style>
<path class="st0" d="M370.32,95.81c43,34,58.24,76.1,47.33,90.55c-5.19,6.87-19.44,17.12-92.85,1.49
	c-38.42-8.18-150.87-33.03-211-62c3.67-4,7.33-8,11-12c97.46,65.21,186.51,50.96,223.51,49.96c13.15-0.36,36-8,17-45"/>
<path class="st1" d="M307.31,87.36c14.67,0.33,29.33,0.67,44,1c-3.5-18.5-52.07-79.69-134-76c-47.95,2.16-79.26,30.43-88.86,38.89
	c-59.8,52.69-65.25,142.44-39.64,185.61c34.16,57.58,99.56,86.27,159.67,75.98c65.65-11.24,99.98-63.3,105.83-72.48
	c-14.83-2.83-29.67-5.67-44.5-8.5c-57.7,59.45-149.85,52.22-191,0c-44.99-57.09-19.46-155.83,48-184
	C211.89,29.03,269.35,44.38,307.31,87.36z"/>
<path class="st0" d="M126.81,29.86c-7,7-14,14-21,21c-41.43-10.81-75-24-78-9c-1.95,9.77,9,37,47,54c-4,4-8,8-12,12
	c-40.55-28.16-64-52-59-78C10.97-7.41,59.58,10.99,126.81,29.86z"/>
</svg>
