<?xml version="1.0" standalone="no"?>
<!DOCTYPE svg PUBLIC "-//W3C//DTD SVG 20010904//EN"
 "http://www.w3.org/TR/2001/REC-SVG-20010904/DTD/svg10.dtd">
<svg version="1.0" xmlns="http://www.w3.org/2000/svg"
 width="96.000000pt" height="96.000000pt" viewBox="0 0 96.000000 96.000000"
 preserveAspectRatio="xMidYMid meet">

<g transform="translate(0.000000,96.000000) scale(0.100000,-0.100000)"
fill="#000000" stroke="none">
<path d="M105 775 l-25 -24 0 -271 0 -271 25 -24 24 -25 351 0 351 0 24 25 25
24 0 271 0 271 -25 24 -24 25 -351 0 -351 0 -24 -25z m679 -63 c-5 -5 -75 -50
-156 -101 l-148 -91 -147 91 c-82 51 -152 96 -157 101 -6 4 131 8 304 8 173 0
310 -4 304 -8z m-387 -220 l83 -52 160 99 160 100 0 -200 0 -199 -320 0 -320
0 0 200 0 200 78 -48 c42 -27 114 -72 159 -100z"/>
</g>
</svg>
