<?xml version="1.0" standalone="no"?>
<!DOCTYPE svg PUBLIC "-//W3C//DTD SVG 20010904//EN"
 "http://www.w3.org/TR/2001/REC-SVG-20010904/DTD/svg10.dtd">
<svg version="1.0" xmlns="http://www.w3.org/2000/svg"
 width="96.000000pt" height="96.000000pt" viewBox="0 0 96.000000 96.000000"
 preserveAspectRatio="xMidYMid meet">

<g transform="translate(0.000000,96.000000) scale(0.100000,-0.100000)"
fill="#000000" stroke="none">
<path d="M65 855 l-25 -24 0 -271 0 -271 25 -24 c24 -24 28 -25 180 -25 l155
0 0 -39 c0 -37 -2 -40 -31 -43 -39 -4 -59 -30 -43 -55 10 -16 29 -18 154 -18
125 0 144 2 154 18 16 25 -4 51 -43 55 -29 3 -31 6 -31 43 l0 39 155 0 c152 0
156 1 180 25 l25 24 0 271 0 271 -25 24 -24 25 -391 0 -391 0 -24 -25z m775
-295 l0 -240 -360 0 -360 0 0 240 0 240 360 0 360 0 0 -240z"/>
</g>
</svg>
